<svg width="20" height="22" viewBox="0 0 20 22" fill="none" xmlns="http://www.w3.org/2000/svg">
<path d="M4.44 1.86304L1.62666 5.61415V18.743C1.62666 19.2405 1.82427 19.7175 2.176 20.0693C2.52774 20.421 3.00479 20.6186 3.50222 20.6186H16.6311C17.1285 20.6186 17.6056 20.421 17.9573 20.0693C18.3091 19.7175 18.5067 19.2405 18.5067 18.743V5.61415L15.6933 1.86304H4.44Z" stroke="#1317DD" stroke-width="1.87556" stroke-linecap="round" stroke-linejoin="round"/>
<path d="M1.62666 5.61414H18.5067" stroke="#1317DD" stroke-width="1.87556" stroke-linecap="round" stroke-linejoin="round"/>
<path d="M13.8178 9.36526C13.8178 10.3601 13.4226 11.3142 12.7191 12.0177C12.0156 12.7212 11.0615 13.1164 10.0667 13.1164C9.07181 13.1164 8.1177 12.7212 7.41423 12.0177C6.71076 11.3142 6.31555 10.3601 6.31555 9.36526" stroke="#1317DD" stroke-width="1.87556" stroke-linecap="round" stroke-linejoin="round"/>
</svg>
