<svg width="24" height="23" viewBox="0 0 24 23" fill="none" xmlns="http://www.w3.org/2000/svg">
<path d="M13.8784 10.8084C13.9629 11.1264 13.9623 11.461 13.8768 11.7787C13.7913 12.0964 13.6238 12.3861 13.3912 12.6187C13.1586 12.8514 12.8689 13.0188 12.5512 13.1043C12.2335 13.1898 11.8989 13.1904 11.5809 13.1059L8.75067 15.9362C8.66416 16.0257 8.56068 16.0972 8.44627 16.1463C8.33186 16.1955 8.2088 16.2213 8.08429 16.2224C7.95977 16.2235 7.83628 16.1998 7.72103 16.1526C7.60578 16.1055 7.50108 16.0358 7.41303 15.9478C7.32498 15.8597 7.25534 15.755 7.20819 15.6398C7.16104 15.5245 7.13731 15.401 7.13839 15.2765C7.13948 15.152 7.16535 15.029 7.21449 14.9145C7.26364 14.8001 7.33508 14.6966 7.42465 14.6101L10.2549 11.7799C10.1704 11.4619 10.171 11.1273 10.2565 10.8096C10.342 10.4919 10.5095 10.2023 10.7421 9.96961C10.9747 9.73696 11.2644 9.5695 11.5821 9.484C11.8998 9.39849 12.2344 9.39793 12.5524 9.48237L15.3826 6.65216C15.5595 6.48134 15.7964 6.38681 16.0423 6.38895C16.2881 6.39109 16.5234 6.48971 16.6972 6.66358C16.8711 6.83745 16.9697 7.07266 16.9719 7.31854C16.974 7.56443 16.8795 7.80131 16.7087 7.97818L13.8784 10.8084ZM12.0667 20.6719C6.8873 20.6719 2.68887 16.4735 2.68887 11.2942C2.68887 6.11481 6.8873 1.91638 12.0667 1.91638C17.246 1.91638 21.4444 6.11481 21.4444 11.2942C21.4444 16.4735 17.246 20.6719 12.0667 20.6719ZM12.0667 18.7964C14.0564 18.7964 15.9646 18.006 17.3715 16.599C18.7785 15.1921 19.5689 13.2839 19.5689 11.2942C19.5689 9.30445 18.7785 7.39623 17.3715 5.98929C15.9646 4.58235 14.0564 3.79194 12.0667 3.79194C10.0769 3.79194 8.16872 4.58235 6.76178 5.98929C5.35484 7.39623 4.56443 9.30445 4.56443 11.2942C4.56443 13.2839 5.35484 15.1921 6.76178 16.599C8.16872 18.006 10.0769 18.7964 12.0667 18.7964Z" fill="#1317DD"/>
</svg>
